# xmcd
#
# Track frame offsets:
#	150
#	16607
#	29422
#	40935
#	52972
#	66547
#	78495
#	89679
#	103435
#	118057
#
# Disc length: 1731 seconds
#
# Revision: 2473772170
# Processed by: cddbd v1.5.2PL0 Copyright (c) Steve Scherf et al.
# Submitted via: EZCDAudioConverter 9.1.1.1
#
DISCID=8706c10a
DTITLE=Various Artist - Legendary Women Of Country
DYEAR=1996
DGENRE=Country
TTITLE0=Barbara Mandrell - I Was Country When Country Wasn't Cool
TTITLE1=Patsy Cline - I Fall To Pieces
TTITLE2=Donna Fargo - The Happiest Girl In The Whole USA
TTITLE3=Brenda Lee - I'm Sorry
TTITLE4=Loretta Lynn - Coal Miner's Daughter
TTITLE5=Kitty Wells - Heartbreak USA
TTITLE6=Patty Loveless - Chains
TTITLE7=Patti Page - Tennessee Waltz
TTITLE8=Jeannie C. Riley - Harper Valley PTA
TTITLE9=Crystal Gayle - Don't It Make My Brown Eyes Blue
EXTD=
EXTT0=
EXTT1=
EXTT2=
EXTT3=
EXTT4=
EXTT5=
EXTT6=
EXTT7=
EXTT8=
EXTT9=
PLAYORDER=
